<?xml version="1.0" standalone="no"?><!-- Generator: Gravit.io --><svg xmlns="http://www.w3.org/2000/svg" xmlns:xlink="http://www.w3.org/1999/xlink" style="isolation:isolate" viewBox="0 0 210 180" width="210" height="180"><defs><clipPath id="_clipPath_oZU9JAHncwsLfiVLMo99kRyxMjWiKlS8"><rect width="210" height="180"/></clipPath></defs><g clip-path="url(#_clipPath_oZU9JAHncwsLfiVLMo99kRyxMjWiKlS8)"><path d=" M -466 -409.255 L -466 375.255 L 318.51 375.255 L 318.51 -409.255 L -466 -409.255 Z " fill="none"/><path d=" M -466 -409.255 L -466 375.255 L 318.51 375.255 L 318.51 -409.255 L -466 -409.255 Z " fill="none"/><path d=" M -466 -409.255 L -466 375.255 L 318.51 375.255 L 318.51 -409.255 L -466 -409.255 Z " fill="none"/><path d=" M -466 -409.255 L -466 375.255 L 318.51 375.255 L 318.51 -409.255 L -466 -409.255 Z " fill="none"/><path d=" M -466 -409.255 L -466 375.255 L 318.51 375.255 L 318.51 -409.255 L -466 -409.255 Z " fill="none"/><clipPath id="_clipPath_UuG5IwXAIJthDkcahdh2HN3N7oa5DX7I"><path d=" M -466 -409.255 L -466 375.255 L 318.51 375.255 L 318.51 -409.255 L -466 -409.255 Z " fill="rgb(255,255,255)"/></clipPath><g clip-path="url(#_clipPath_UuG5IwXAIJthDkcahdh2HN3N7oa5DX7I)"><path d=" M 30.358 130.5 C 30.358 104.481 30.358 78.462 30.358 52.442 C 24.503 54.075 18.737 56.24 13.119 58.957 C 13.119 91.056 13.119 123.158 13.119 155.258 C 41.245 141.649 73.099 141.649 101.225 155.258 C 78.602 133.747 52.982 124.796 30.358 130.5 Z " fill="rgb(145,215,243)"/></g><clipPath id="_clipPath_VIZ4r6aTcngsWrh1a6awAreiSGVBYRUH"><path d=" M -466 -409.255 L -466 375.255 L 318.51 375.255 L 318.51 -409.255 L -466 -409.255 Z " fill="rgb(255,255,255)"/></clipPath><g clip-path="url(#_clipPath_VIZ4r6aTcngsWrh1a6awAreiSGVBYRUH)"><path d=" M 176.391 52.442 C 176.391 78.462 176.391 104.481 176.391 130.5 C 153.769 124.796 128.148 133.747 105.525 155.258 C 133.651 141.649 165.505 141.649 193.631 155.258 C 193.631 123.158 193.631 91.056 193.631 58.957 C 188.013 56.24 182.246 54.075 176.391 52.442 Z " fill="rgb(145,215,243)"/></g><clipPath id="_clipPath_QuF73sEFs4lYD0N89s57OaXcCCXhNg0O"><path d=" M -466 -409.255 L -466 375.255 L 318.51 375.255 L 318.51 -409.255 L -466 -409.255 Z " fill="rgb(255,255,255)"/></clipPath><g clip-path="url(#_clipPath_QuF73sEFs4lYD0N89s57OaXcCCXhNg0O)"><path d=" M 53.608 33.288 C 45.675 32.039 37.852 32.31 30.358 34.199 C 30.358 40.28 30.358 46.361 30.358 52.442 C 38.001 50.312 45.794 49.105 53.608 48.823 C 53.608 43.646 53.608 38.468 53.608 33.288 Z " fill="rgb(98,196,235)"/></g><clipPath id="_clipPath_vOHo2LO8dn22AzHsL6xOoJOU992IGorA"><path d=" M -466 -409.255 L -466 375.255 L 318.51 375.255 L 318.51 -409.255 L -466 -409.255 Z " fill="rgb(255,255,255)"/></clipPath><g clip-path="url(#_clipPath_vOHo2LO8dn22AzHsL6xOoJOU992IGorA)"><path d=" M 101.225 58.957 L 101.225 58.957 L 101.225 58.957 L 101.225 58.957 Z " fill="rgb(52,169,224)"/></g><clipPath id="_clipPath_JrSHDGYYPWhWIzIA2vvNzZWDU0DAwNS4"><path d=" M -466 -409.255 L -466 375.255 L 318.51 375.255 L 318.51 -409.255 L -466 -409.255 Z " fill="rgb(255,255,255)"/></clipPath><g clip-path="url(#_clipPath_JrSHDGYYPWhWIzIA2vvNzZWDU0DAwNS4)"><path d=" M 101.225 58.957 L 101.225 58.957 L 101.225 58.957 L 101.225 58.957 Z " fill="rgb(52,169,224)"/></g><clipPath id="_clipPath_w5gGAJFWcxGR5irbDE7FsW7SjT6jedf3"><path d=" M -466 -409.255 L -466 375.255 L 318.51 375.255 L 318.51 -409.255 L -466 -409.255 Z " fill="rgb(255,255,255)"/></clipPath><g clip-path="url(#_clipPath_w5gGAJFWcxGR5irbDE7FsW7SjT6jedf3)"><path d=" M 53.608 112.425 C 53.608 91.224 53.608 70.024 53.608 48.823 C 45.794 49.105 38.001 50.312 30.358 52.442 C 30.358 78.462 30.358 104.481 30.358 130.5 C 52.982 124.796 78.602 133.747 101.225 155.258 C 86.024 127.976 68.809 112.491 53.608 112.425 Z " fill="rgb(72,173,225)"/></g><clipPath id="_clipPath_GnIB8wpHaZvn4fxG4CLrOQE2aoF6d7IG"><path d=" M -466 -409.255 L -466 375.255 L 318.51 375.255 L 318.51 -409.255 L -466 -409.255 Z " fill="rgb(255,255,255)"/></clipPath><g clip-path="url(#_clipPath_GnIB8wpHaZvn4fxG4CLrOQE2aoF6d7IG)"><path d=" M 101.225 58.957 L 101.225 58.957 L 101.225 58.957 L 101.225 58.957 Z " fill="rgb(52,169,224)"/></g><clipPath id="_clipPath_iHIhXpTm85wzWfJ3ajWDJ79FToBMjPCW"><path d=" M -466 -409.255 L -466 375.255 L 318.51 375.255 L 318.51 -409.255 L -466 -409.255 Z " fill="rgb(255,255,255)"/></clipPath><g clip-path="url(#_clipPath_iHIhXpTm85wzWfJ3ajWDJ79FToBMjPCW)"><path d=" M 176.391 52.442 C 176.391 46.361 176.391 40.28 176.391 34.199 C 168.898 32.31 161.074 32.039 153.141 33.288 C 153.141 38.468 153.141 43.646 153.141 48.823 C 160.956 49.105 168.749 50.312 176.391 52.442 Z " fill="rgb(98,196,235)"/></g><clipPath id="_clipPath_96nexV1n5zkFR4w1Ke6Oa5QP4DyOuxeV"><path d=" M -466 -409.255 L -466 375.255 L 318.51 375.255 L 318.51 -409.255 L -466 -409.255 Z " fill="rgb(255,255,255)"/></clipPath><g clip-path="url(#_clipPath_96nexV1n5zkFR4w1Ke6Oa5QP4DyOuxeV)"><path d=" M 176.391 130.5 C 176.391 104.481 176.391 78.462 176.391 52.442 C 168.749 50.312 160.956 49.105 153.141 48.823 C 153.141 70.024 153.141 91.224 153.141 112.425 C 137.94 112.491 120.726 127.976 105.525 155.258 C 128.148 133.747 153.769 124.796 176.391 130.5 Z " fill="rgb(72,173,225)"/></g><clipPath id="_clipPath_p1RBRcMVnZPHlpTrZckGpm2ZBF1ZDUUE"><path d=" M -466 -409.255 L -466 375.255 L 318.51 375.255 L 318.51 -409.255 L -466 -409.255 Z " fill="rgb(255,255,255)"/></clipPath><g clip-path="url(#_clipPath_p1RBRcMVnZPHlpTrZckGpm2ZBF1ZDUUE)"><path d=" M 101.225 58.957 L 101.225 58.957 L 101.225 58.957 L 101.225 58.957 Z " fill="rgb(52,169,224)"/></g><clipPath id="_clipPath_qDYEuBfRdBnrbhbcGj1l5JLqaJU2HbMq"><path d=" M -466 -409.255 L -466 375.255 L 318.51 375.255 L 318.51 -409.255 L -466 -409.255 Z " fill="rgb(255,255,255)"/></clipPath><g clip-path="url(#_clipPath_qDYEuBfRdBnrbhbcGj1l5JLqaJU2HbMq)"><path d=" M 53.608 16.124 C 53.608 21.845 53.608 27.567 53.608 33.288 C 69.626 35.812 86.096 44.571 101.225 58.957 C 86.024 31.677 68.809 16.191 53.608 16.124 Z " fill="rgb(98,196,235)"/></g><clipPath id="_clipPath_NMKl5cPlucKnIBufIhYtQKZ1g3SkKfvI"><path d=" M -466 -409.255 L -466 375.255 L 318.51 375.255 L 318.51 -409.255 L -466 -409.255 Z " fill="rgb(255,255,255)"/></clipPath><g clip-path="url(#_clipPath_NMKl5cPlucKnIBufIhYtQKZ1g3SkKfvI)"><path d=" M 101.225 58.957 L 101.225 58.957 C 86.096 44.571 69.626 35.812 53.608 33.288 C 53.608 38.468 53.608 43.646 53.608 48.823 C 69.785 48.242 86.048 51.614 101.225 58.957 Z " fill="rgb(61,152,211)"/></g><clipPath id="_clipPath_Mr60VS0y0SXVRkalx4hS2K84VoBR78AR"><path d=" M -466 -409.255 L -466 375.255 L 318.51 375.255 L 318.51 -409.255 L -466 -409.255 Z " fill="rgb(255,255,255)"/></clipPath><g clip-path="url(#_clipPath_Mr60VS0y0SXVRkalx4hS2K84VoBR78AR)"><path d=" M 101.225 58.957 C 86.048 51.614 69.785 48.242 53.608 48.823 C 53.608 70.024 53.608 91.224 53.608 112.425 C 68.809 112.491 86.024 127.976 101.225 155.258 C 101.225 123.158 101.225 91.057 101.225 58.957 L 101.225 58.957 Z " fill="rgb(65,133,197)"/></g><clipPath id="_clipPath_yDgG7ssr8DVQG7OWdccvEs3dOkYQPToB"><path d=" M -466 -409.255 L -466 375.255 L 318.51 375.255 L 318.51 -409.255 L -466 -409.255 Z " fill="rgb(255,255,255)"/></clipPath><g clip-path="url(#_clipPath_yDgG7ssr8DVQG7OWdccvEs3dOkYQPToB)"><path d=" M 153.141 16.124 C 137.94 16.191 120.726 31.677 105.525 58.957 C 120.654 44.571 137.123 35.812 153.141 33.288 C 153.141 27.567 153.141 21.845 153.141 16.124 Z " fill="rgb(98,196,235)"/></g><clipPath id="_clipPath_9AguEutVPj05EMVq9R7GRPlNQWDNJGZe"><path d=" M -466 -409.255 L -466 375.255 L 318.51 375.255 L 318.51 -409.255 L -466 -409.255 Z " fill="rgb(255,255,255)"/></clipPath><g clip-path="url(#_clipPath_9AguEutVPj05EMVq9R7GRPlNQWDNJGZe)"><path d=" M 153.141 48.823 C 153.141 43.646 153.141 38.468 153.141 33.288 C 137.123 35.812 120.654 44.571 105.525 58.957 L 105.525 58.957 C 120.702 51.614 136.964 48.242 153.141 48.823 Z " fill="rgb(61,152,211)"/></g><clipPath id="_clipPath_08DWg5ygcvepneL9MGa5bta2NHT8qX8f"><path d=" M -466 -409.255 L -466 375.255 L 318.51 375.255 L 318.51 -409.255 L -466 -409.255 Z " fill="rgb(255,255,255)"/></clipPath><g clip-path="url(#_clipPath_08DWg5ygcvepneL9MGa5bta2NHT8qX8f)"><path d=" M 153.141 112.425 C 153.141 91.224 153.141 70.024 153.141 48.823 C 136.964 48.242 120.702 51.614 105.525 58.957 L 105.525 58.957 C 105.525 91.057 105.525 123.158 105.525 155.258 C 120.726 127.976 137.94 112.491 153.141 112.425 Z " fill="rgb(65,133,197)"/></g><path d=" M -466 -409.255 L -466 375.255 L 318.51 375.255 L 318.51 -409.255 L -466 -409.255 Z " fill="none"/><clipPath id="_clipPath_F9WoUi86rudfkhmNemos8AuBi8JpFYmC"><path d=" M -466 -409.255 L -466 375.255 L 318.51 375.255 L 318.51 -409.255 L -466 -409.255 Z " fill="rgb(255,255,255)"/></clipPath><g clip-path="url(#_clipPath_F9WoUi86rudfkhmNemos8AuBi8JpFYmC)"><path d=" M -81.164 345.704 C -81.166 345.7 -81.166 345.696 -81.166 345.688 C -81.166 345.696 -81.166 345.7 -81.164 345.704 Z " fill="rgb(48,72,110)"/></g><clipPath id="_clipPath_GxP2zVSBQl6YkQ3n9uKyx61lFdt82qHI"><path d=" M -466 -409.255 L -466 375.255 L 318.51 375.255 L 318.51 -409.255 L -466 -409.255 Z " fill="rgb(255,255,255)"/></clipPath><g clip-path="url(#_clipPath_GxP2zVSBQl6YkQ3n9uKyx61lFdt82qHI)"><path d=" M -81.036 346.517 C -81.034 346.517 -81.034 346.517 -81.033 346.517 C -81.081 346.287 -81.119 346.056 -81.149 345.83 C -81.119 346.059 -81.081 346.289 -81.036 346.517 Z " fill="rgb(48,72,110)"/></g><clipPath id="_clipPath_6i4fv2JPVsJxus8vdvsLBu1OSEPmvVEU"><path d=" M -466 -409.255 L -466 375.255 L 318.51 375.255 L 318.51 -409.255 L -466 -409.255 Z " fill="rgb(255,255,255)"/></clipPath><g clip-path="url(#_clipPath_6i4fv2JPVsJxus8vdvsLBu1OSEPmvVEU)"><path d=" M -80.194 348.879 C -80.2 348.869 -80.205 348.857 -80.21 348.845 C -80.205 348.857 -80.2 348.869 -80.194 348.879 Z " fill="rgb(48,72,110)"/></g><clipPath id="_clipPath_trO6oULJ4maECK7T0pjT6WJPjQ28eV5m"><path d=" M -466 -409.255 L -466 375.255 L 318.51 375.255 L 318.51 -409.255 L -466 -409.255 Z " fill="rgb(255,255,255)"/></clipPath><g clip-path="url(#_clipPath_trO6oULJ4maECK7T0pjT6WJPjQ28eV5m)"><path d=" M -80.274 348.72 C -80.297 348.678 -80.317 348.634 -80.339 348.589 C -80.317 348.636 -80.297 348.678 -80.274 348.72 Z " fill="rgb(48,72,110)"/></g><clipPath id="_clipPath_WTVcW5qSf2EC1XitiRSVHMqU1vc2pY8K"><path d=" M -466 -409.255 L -466 375.255 L 318.51 375.255 L 318.51 -409.255 L -466 -409.255 Z " fill="rgb(255,255,255)"/></clipPath><g clip-path="url(#_clipPath_WTVcW5qSf2EC1XitiRSVHMqU1vc2pY8K)"><path d=" M -80.799 347.427 C -80.674 347.82 -80.525 348.2 -80.351 348.563 C -80.528 348.192 -80.674 347.812 -80.796 347.427 C -80.797 347.427 -80.798 347.427 -80.799 347.427 Z " fill="rgb(48,72,110)"/></g><path d=" M 230.51 129.443 L 230.51 -431.255 L -554 -431.255 L -554 353.255 L 230.51 353.255 L 230.51 129.443" fill="none"/></g></svg>