<?xml version="1.0" standalone="no"?><!-- Generator: Gravit.io --><svg xmlns="http://www.w3.org/2000/svg" xmlns:xlink="http://www.w3.org/1999/xlink" style="isolation:isolate" viewBox="0 0 400 230" width="400" height="230"><defs><clipPath id="_clipPath_a4zpemOpeYmVA1kg1Xav3iBb1Pe4r5in"><rect width="400" height="230"/></clipPath></defs><g clip-path="url(#_clipPath_a4zpemOpeYmVA1kg1Xav3iBb1Pe4r5in)"><path d=" M -366 -409.255 L -366 375.255 L 418.51 375.255 L 418.51 -409.255 L -366 -409.255 Z " fill="none"/><path d=" M -366 -409.255 L -366 375.255 L 418.51 375.255 L 418.51 -409.255 L -366 -409.255 Z " fill="none"/><path d=" M -366 -409.255 L -366 375.255 L 418.51 375.255 L 418.51 -409.255 L -366 -409.255 Z " fill="none"/><path d=" M -366 -409.255 L -366 375.255 L 418.51 375.255 L 418.51 -409.255 L -366 -409.255 Z " fill="none"/><path d=" M -366 -409.255 L -366 375.255 L 418.51 375.255 L 418.51 -409.255 L -366 -409.255 Z " fill="none"/><clipPath id="_clipPath_nLYxtFokkqBDKAfekZoszCawUar1quuH"><path d=" M -366 -409.255 L -366 375.255 L 418.51 375.255 L 418.51 -409.255 L -366 -409.255 Z " fill="rgb(255,255,255)"/></clipPath><g clip-path="url(#_clipPath_nLYxtFokkqBDKAfekZoszCawUar1quuH)"><path d=" M 130.358 130.5 C 130.358 104.481 130.358 78.462 130.358 52.442 C 124.503 54.075 118.737 56.24 113.119 58.957 C 113.119 91.056 113.119 123.158 113.119 155.258 C 141.245 141.649 173.099 141.649 201.225 155.258 C 178.602 133.747 152.982 124.796 130.358 130.5 Z " fill="rgb(145,215,243)"/></g><clipPath id="_clipPath_G0kOVxYYtGkDB2NEcy9LHYxec0q0Hhdv"><path d=" M -366 -409.255 L -366 375.255 L 418.51 375.255 L 418.51 -409.255 L -366 -409.255 Z " fill="rgb(255,255,255)"/></clipPath><g clip-path="url(#_clipPath_G0kOVxYYtGkDB2NEcy9LHYxec0q0Hhdv)"><path d=" M 276.391 52.442 C 276.391 78.462 276.391 104.481 276.391 130.5 C 253.769 124.796 228.148 133.747 205.525 155.258 C 233.651 141.649 265.505 141.649 293.631 155.258 C 293.631 123.158 293.631 91.056 293.631 58.957 C 288.013 56.24 282.246 54.075 276.391 52.442 Z " fill="rgb(145,215,243)"/></g><clipPath id="_clipPath_j6Lin2L4bh3xH72aMzUIjh7yL0GkScTF"><path d=" M -366 -409.255 L -366 375.255 L 418.51 375.255 L 418.51 -409.255 L -366 -409.255 Z " fill="rgb(255,255,255)"/></clipPath><g clip-path="url(#_clipPath_j6Lin2L4bh3xH72aMzUIjh7yL0GkScTF)"><path d=" M 153.608 33.288 C 145.675 32.039 137.852 32.31 130.358 34.199 C 130.358 40.28 130.358 46.361 130.358 52.442 C 138.001 50.312 145.794 49.105 153.608 48.823 C 153.608 43.646 153.608 38.468 153.608 33.288 Z " fill="rgb(98,196,235)"/></g><clipPath id="_clipPath_0wQIbR0uC6GIxU6rJGxVQW3UJHO31yzp"><path d=" M -366 -409.255 L -366 375.255 L 418.51 375.255 L 418.51 -409.255 L -366 -409.255 Z " fill="rgb(255,255,255)"/></clipPath><g clip-path="url(#_clipPath_0wQIbR0uC6GIxU6rJGxVQW3UJHO31yzp)"><path d=" M 201.225 58.957 L 201.225 58.957 L 201.225 58.957 L 201.225 58.957 Z " fill="rgb(52,169,224)"/></g><clipPath id="_clipPath_XOXwoigpp50g7N6eZ3ibBWsDn5j03TLD"><path d=" M -366 -409.255 L -366 375.255 L 418.51 375.255 L 418.51 -409.255 L -366 -409.255 Z " fill="rgb(255,255,255)"/></clipPath><g clip-path="url(#_clipPath_XOXwoigpp50g7N6eZ3ibBWsDn5j03TLD)"><path d=" M 201.225 58.957 L 201.225 58.957 L 201.225 58.957 L 201.225 58.957 Z " fill="rgb(52,169,224)"/></g><clipPath id="_clipPath_TYvzfFgCwyE9d8HrB67QBMxwIC2AnIwx"><path d=" M -366 -409.255 L -366 375.255 L 418.51 375.255 L 418.51 -409.255 L -366 -409.255 Z " fill="rgb(255,255,255)"/></clipPath><g clip-path="url(#_clipPath_TYvzfFgCwyE9d8HrB67QBMxwIC2AnIwx)"><path d=" M 153.608 112.425 C 153.608 91.224 153.608 70.024 153.608 48.823 C 145.794 49.105 138.001 50.312 130.358 52.442 C 130.358 78.462 130.358 104.481 130.358 130.5 C 152.982 124.796 178.602 133.747 201.225 155.258 C 186.024 127.976 168.809 112.491 153.608 112.425 Z " fill="rgb(72,173,225)"/></g><clipPath id="_clipPath_4TJN1k5sdVpJIp0AGMp59OL7jlTgaPPn"><path d=" M -366 -409.255 L -366 375.255 L 418.51 375.255 L 418.51 -409.255 L -366 -409.255 Z " fill="rgb(255,255,255)"/></clipPath><g clip-path="url(#_clipPath_4TJN1k5sdVpJIp0AGMp59OL7jlTgaPPn)"><path d=" M 201.225 58.957 L 201.225 58.957 L 201.225 58.957 L 201.225 58.957 Z " fill="rgb(52,169,224)"/></g><clipPath id="_clipPath_1oLmgkxw7KwxujDwhzOM88gHPlyOjt9v"><path d=" M -366 -409.255 L -366 375.255 L 418.51 375.255 L 418.51 -409.255 L -366 -409.255 Z " fill="rgb(255,255,255)"/></clipPath><g clip-path="url(#_clipPath_1oLmgkxw7KwxujDwhzOM88gHPlyOjt9v)"><path d=" M 276.391 52.442 C 276.391 46.361 276.391 40.28 276.391 34.199 C 268.898 32.31 261.074 32.039 253.141 33.288 C 253.141 38.468 253.141 43.646 253.141 48.823 C 260.956 49.105 268.749 50.312 276.391 52.442 Z " fill="rgb(98,196,235)"/></g><clipPath id="_clipPath_2v8V65aWbYkbJp3mWfhI3LfojZNzt4VG"><path d=" M -366 -409.255 L -366 375.255 L 418.51 375.255 L 418.51 -409.255 L -366 -409.255 Z " fill="rgb(255,255,255)"/></clipPath><g clip-path="url(#_clipPath_2v8V65aWbYkbJp3mWfhI3LfojZNzt4VG)"><path d=" M 276.391 130.5 C 276.391 104.481 276.391 78.462 276.391 52.442 C 268.749 50.312 260.956 49.105 253.141 48.823 C 253.141 70.024 253.141 91.224 253.141 112.425 C 237.94 112.491 220.726 127.976 205.525 155.258 C 228.148 133.747 253.769 124.796 276.391 130.5 Z " fill="rgb(72,173,225)"/></g><clipPath id="_clipPath_5c4odG1TVPzNWII1ZD6DDOwAQfPir6xJ"><path d=" M -366 -409.255 L -366 375.255 L 418.51 375.255 L 418.51 -409.255 L -366 -409.255 Z " fill="rgb(255,255,255)"/></clipPath><g clip-path="url(#_clipPath_5c4odG1TVPzNWII1ZD6DDOwAQfPir6xJ)"><path d=" M 201.225 58.957 L 201.225 58.957 L 201.225 58.957 L 201.225 58.957 Z " fill="rgb(52,169,224)"/></g><clipPath id="_clipPath_WnYVdu2Sh50GSBeFVIbXhmC6ZxKSIwsp"><path d=" M -366 -409.255 L -366 375.255 L 418.51 375.255 L 418.51 -409.255 L -366 -409.255 Z " fill="rgb(255,255,255)"/></clipPath><g clip-path="url(#_clipPath_WnYVdu2Sh50GSBeFVIbXhmC6ZxKSIwsp)"><path d=" M 153.608 16.124 C 153.608 21.845 153.608 27.567 153.608 33.288 C 169.626 35.812 186.096 44.571 201.225 58.957 C 186.024 31.677 168.809 16.191 153.608 16.124 Z " fill="rgb(98,196,235)"/></g><clipPath id="_clipPath_8kC2Xjpb5MF2KUebr9Dzd5UZbpt29YOn"><path d=" M -366 -409.255 L -366 375.255 L 418.51 375.255 L 418.51 -409.255 L -366 -409.255 Z " fill="rgb(255,255,255)"/></clipPath><g clip-path="url(#_clipPath_8kC2Xjpb5MF2KUebr9Dzd5UZbpt29YOn)"><path d=" M 201.225 58.957 L 201.225 58.957 C 186.096 44.571 169.626 35.812 153.608 33.288 C 153.608 38.468 153.608 43.646 153.608 48.823 C 169.785 48.242 186.048 51.614 201.225 58.957 Z " fill="rgb(61,152,211)"/></g><clipPath id="_clipPath_4GPDJ0eUIFjeBddi3S0zzpC1Pw7GmV1R"><path d=" M -366 -409.255 L -366 375.255 L 418.51 375.255 L 418.51 -409.255 L -366 -409.255 Z " fill="rgb(255,255,255)"/></clipPath><g clip-path="url(#_clipPath_4GPDJ0eUIFjeBddi3S0zzpC1Pw7GmV1R)"><path d=" M 201.225 58.957 C 186.048 51.614 169.785 48.242 153.608 48.823 C 153.608 70.024 153.608 91.224 153.608 112.425 C 168.809 112.491 186.024 127.976 201.225 155.258 C 201.225 123.158 201.225 91.057 201.225 58.957 L 201.225 58.957 Z " fill="rgb(65,133,197)"/></g><clipPath id="_clipPath_JtrCWtr8yedcqMS9oJu4B51OLAXb5mtN"><path d=" M -366 -409.255 L -366 375.255 L 418.51 375.255 L 418.51 -409.255 L -366 -409.255 Z " fill="rgb(255,255,255)"/></clipPath><g clip-path="url(#_clipPath_JtrCWtr8yedcqMS9oJu4B51OLAXb5mtN)"><path d=" M 253.141 16.124 C 237.94 16.191 220.726 31.677 205.525 58.957 C 220.654 44.571 237.123 35.812 253.141 33.288 C 253.141 27.567 253.141 21.845 253.141 16.124 Z " fill="rgb(98,196,235)"/></g><clipPath id="_clipPath_zcR7tN0K5kSP7SrDFvKHx6TW6Zzs9JBR"><path d=" M -366 -409.255 L -366 375.255 L 418.51 375.255 L 418.51 -409.255 L -366 -409.255 Z " fill="rgb(255,255,255)"/></clipPath><g clip-path="url(#_clipPath_zcR7tN0K5kSP7SrDFvKHx6TW6Zzs9JBR)"><path d=" M 253.141 48.823 C 253.141 43.646 253.141 38.468 253.141 33.288 C 237.123 35.812 220.654 44.571 205.525 58.957 L 205.525 58.957 C 220.702 51.614 236.964 48.242 253.141 48.823 Z " fill="rgb(61,152,211)"/></g><clipPath id="_clipPath_Qu3al6HiJgQmsFNZkEuUaEYrky03ErvA"><path d=" M -366 -409.255 L -366 375.255 L 418.51 375.255 L 418.51 -409.255 L -366 -409.255 Z " fill="rgb(255,255,255)"/></clipPath><g clip-path="url(#_clipPath_Qu3al6HiJgQmsFNZkEuUaEYrky03ErvA)"><path d=" M 253.141 112.425 C 253.141 91.224 253.141 70.024 253.141 48.823 C 236.964 48.242 220.702 51.614 205.525 58.957 L 205.525 58.957 C 205.525 91.057 205.525 123.158 205.525 155.258 C 220.726 127.976 237.94 112.491 253.141 112.425 Z " fill="rgb(65,133,197)"/></g><g transform="matrix(1,0,0,1,3.534,159.017)"><text transform="matrix(1,0,0,1,0,51.305)" style="font-family:'Open Sans';font-weight:400;font-size:48px;font-style:normal;fill:[Object GCMYKColor];stroke:none;">echange-de-livres</text></g><path d=" M -366 -409.255 L -366 375.255 L 418.51 375.255 L 418.51 -409.255 L -366 -409.255 Z " fill="none"/><clipPath id="_clipPath_ArMn1EFm50Rb2pe1mqZVIBivYwOdZtwt"><path d=" M -366 -409.255 L -366 375.255 L 418.51 375.255 L 418.51 -409.255 L -366 -409.255 Z " fill="rgb(255,255,255)"/></clipPath><g clip-path="url(#_clipPath_ArMn1EFm50Rb2pe1mqZVIBivYwOdZtwt)"><path d=" M 18.836 345.704 C 18.834 345.7 18.834 345.696 18.834 345.688 C 18.834 345.696 18.834 345.7 18.836 345.704 Z " fill="rgb(48,72,110)"/></g><clipPath id="_clipPath_c7hWPdg3EijAh4LRuCfxwq5PisoqQKII"><path d=" M -366 -409.255 L -366 375.255 L 418.51 375.255 L 418.51 -409.255 L -366 -409.255 Z " fill="rgb(255,255,255)"/></clipPath><g clip-path="url(#_clipPath_c7hWPdg3EijAh4LRuCfxwq5PisoqQKII)"><path d=" M 18.964 346.517 C 18.966 346.517 18.966 346.517 18.967 346.517 C 18.919 346.287 18.881 346.056 18.851 345.83 C 18.881 346.059 18.919 346.289 18.964 346.517 Z " fill="rgb(48,72,110)"/></g><clipPath id="_clipPath_WD9ak3WgNMFOxniyHxKQJSSeT3qzamtk"><path d=" M -366 -409.255 L -366 375.255 L 418.51 375.255 L 418.51 -409.255 L -366 -409.255 Z " fill="rgb(255,255,255)"/></clipPath><g clip-path="url(#_clipPath_WD9ak3WgNMFOxniyHxKQJSSeT3qzamtk)"><path d=" M 19.806 348.879 C 19.8 348.869 19.795 348.857 19.79 348.845 C 19.795 348.857 19.8 348.869 19.806 348.879 Z " fill="rgb(48,72,110)"/></g><clipPath id="_clipPath_pAUTJWH48HqHpsYjIX5N0xdFriHVEC7g"><path d=" M -366 -409.255 L -366 375.255 L 418.51 375.255 L 418.51 -409.255 L -366 -409.255 Z " fill="rgb(255,255,255)"/></clipPath><g clip-path="url(#_clipPath_pAUTJWH48HqHpsYjIX5N0xdFriHVEC7g)"><path d=" M 19.726 348.72 C 19.703 348.678 19.683 348.634 19.661 348.589 C 19.683 348.636 19.703 348.678 19.726 348.72 Z " fill="rgb(48,72,110)"/></g><clipPath id="_clipPath_AvI1uHgUswWAJzZoguDcz5GiktN0O8rd"><path d=" M -366 -409.255 L -366 375.255 L 418.51 375.255 L 418.51 -409.255 L -366 -409.255 Z " fill="rgb(255,255,255)"/></clipPath><g clip-path="url(#_clipPath_AvI1uHgUswWAJzZoguDcz5GiktN0O8rd)"><path d=" M 19.201 347.427 C 19.326 347.82 19.475 348.2 19.649 348.563 C 19.472 348.192 19.326 347.812 19.204 347.427 C 19.203 347.427 19.202 347.427 19.201 347.427 Z " fill="rgb(48,72,110)"/></g><path d=" M 330.51 129.443 L 330.51 -431.255 L -454 -431.255 L -454 353.255 L 330.51 353.255 L 330.51 129.443" fill="none"/></g></svg>